<?xml version="1.0" encoding="UTF-8"?><svg xmlns="http://www.w3.org/2000/svg" xmlns:xlink="http://www.w3.org/1999/xlink" viewBox="0 0 1075.23 1075.23"><defs><style>.cls-1{fill:#34c7cf;}.cls-2{fill:url(#_Градієнт_без_назви_1061-2);}.cls-3{fill:#009295;}.cls-4{fill:#050e12;}.cls-5{fill:none;}.cls-6{fill:#01a7ac;opacity:.35;}.cls-7{fill:#032733;}.cls-8{fill:#30bcc8;}.cls-9{fill:#0d1217;}.cls-10{fill:url(#_Градієнт_без_назви_1280-3);}.cls-11{fill:#0c1217;}.cls-12{fill:url(#_Градієнт_без_назви_1003);}.cls-13{fill:#116576;}.cls-14{fill:#091824;}.cls-15{fill:url(#_Градієнт_без_назви_1061);}.cls-16{fill:#33c4cd;}.cls-17{fill:url(#_Градієнт_без_назви_1003-2);}.cls-18{fill:#091419;}.cls-19{fill:#0b1f2d;}.cls-20{fill:url(#_Градієнт_без_назви_1280-4);}.cls-21{fill:#29dfeb;}.cls-22{fill:#034150;}.cls-23{fill:#0b1c27;}.cls-24{fill:url(#_Градієнт_без_назви_1280-2);}.cls-25{fill:url(#_Градієнт_без_назви_1280);}</style><radialGradient id="_Градієнт_без_назви_1061" cx="506.49" cy="537.12" fx="506.49" fy="537.12" r="456.94" gradientTransform="translate(1090.77 1.18) rotate(-179.81) scale(1 -1)" gradientUnits="userSpaceOnUse"><stop offset=".7" stop-color="#11acd4" stop-opacity="0"/><stop offset=".79" stop-color="#0baac9" stop-opacity=".23"/><stop offset=".93" stop-color="#03a9ba" stop-opacity=".57"/><stop offset="1" stop-color="#00a9b5" stop-opacity=".7"/></radialGradient><linearGradient id="_Градієнт_без_назви_1280" x1="491.12" y1="387.74" x2="478.75" y2="692.91" gradientTransform="translate(1090.77 1.18) rotate(-179.81) scale(1 -1)" gradientUnits="userSpaceOnUse"><stop offset=".21" stop-color="#118ed4" stop-opacity="0"/><stop offset=".33" stop-color="#108dd2" stop-opacity=".03"/><stop offset=".49" stop-color="#0d8dcc" stop-opacity=".13"/><stop offset=".67" stop-color="#098dc4" stop-opacity=".29"/><stop offset=".86" stop-color="#048db8" stop-opacity=".51"/><stop offset="1" stop-color="#008dae" stop-opacity=".7"/></linearGradient><linearGradient id="_Градієнт_без_назви_1003" x1="464.34" y1="705.37" x2="464.34" y2="434.71" gradientTransform="translate(1090.77 1.18) rotate(-179.81) scale(1 -1)" gradientUnits="userSpaceOnUse"><stop offset="0" stop-color="#36ccd2"/><stop offset=".08" stop-color="#35c9d2" stop-opacity=".89"/><stop offset=".26" stop-color="#35c3d4" stop-opacity=".59"/><stop offset=".51" stop-color="#34bad7" stop-opacity=".13"/><stop offset=".57" stop-color="#34b8d8" stop-opacity="0"/></linearGradient><linearGradient id="_Градієнт_без_назви_1003-2" x1="510.07" y1="217.45" x2="510.07" y2="456.77" xlink:href="#_Градієнт_без_назви_1003"/><linearGradient id="_Градієнт_без_назви_1280-2" x1="702.67" y1="584.94" x2="822.98" y2="584.94" xlink:href="#_Градієнт_без_назви_1280"/><linearGradient id="_Градієнт_без_назви_1280-3" x1="493.57" y1="732.12" x2="493.57" y2="885.13" xlink:href="#_Градієнт_без_назви_1280"/><linearGradient id="_Градієнт_без_назви_1280-4" x1="554.92" y1="768.87" x2="559.57" y2="832.44" xlink:href="#_Градієнт_без_назви_1280"/><radialGradient id="_Градієнт_без_назви_1061-2" cx="514.03" cy="534.9" fx="514.03" fy="534.9" r="456.94" xlink:href="#_Градієнт_без_назви_1061"/></defs><g id="bg"><circle class="cls-5" cx="537.62" cy="537.62" r="537.62"/></g><g id="warden_head"><polygon class="cls-22" points="772.53 579.04 739.21 578.77 729.3 547.2 762.62 547.48 772.53 579.04"/><polygon class="cls-22" points="805.84 579.32 772.53 579.04 762.62 547.48 795.94 547.75 805.84 579.32"/><polygon class="cls-21" points="972.39 580.69 939.08 580.41 929.18 548.85 962.49 549.13 972.39 580.69"/><polygon class="cls-22" points="762.62 547.48 729.3 547.2 719.39 515.63 752.71 515.91 762.62 547.48"/><polygon class="cls-22" points="795.94 547.75 762.62 547.48 752.71 515.91 786.03 516.18 795.94 547.75"/><polygon class="cls-22" points="829.25 548.03 795.94 547.75 786.03 516.18 819.35 516.46 829.25 548.03"/><polygon class="cls-21" points="862.57 548.3 829.25 548.03 819.35 516.46 852.66 516.74 862.57 548.3"/><polygon class="cls-21" points="962.49 549.13 929.18 548.85 919.28 517.29 952.59 517.57 962.49 549.13"/><polygon class="cls-22" points="752.71 515.91 719.39 515.63 709.48 484.06 742.81 484.34 752.71 515.91"/><polygon class="cls-22" points="786.03 516.18 752.71 515.91 742.81 484.34 776.13 484.62 786.03 516.18"/><polygon class="cls-22" points="819.35 516.46 786.03 516.18 776.13 484.62 809.44 484.89 819.35 516.46"/><polygon class="cls-3" points="852.66 516.74 819.35 516.46 809.44 484.89 842.76 485.17 852.66 516.74"/><polygon class="cls-3" points="885.97 517.01 852.66 516.74 842.76 485.17 876.07 485.45 885.97 517.01"/><polygon class="cls-3" points="952.59 517.57 919.28 517.29 909.38 485.73 942.69 486 952.59 517.57"/><polygon class="cls-21" points="1052.5 518.39 1019.2 518.12 1009.3 486.56 1042.6 486.84 1052.5 518.39"/><polygon class="cls-22" points="776.13 484.62 742.81 484.34 732.9 452.77 766.22 453.04 776.13 484.62"/><polygon class="cls-22" points="809.44 484.89 776.13 484.62 766.22 453.04 799.54 453.32 809.44 484.89"/><polygon class="cls-22" points="842.76 485.17 809.44 484.89 799.54 453.32 832.85 453.6 842.76 485.17"/><polygon class="cls-22" points="876.07 485.45 842.76 485.17 832.85 453.6 866.17 453.88 876.07 485.45"/><polygon class="cls-3" points="909.38 485.73 876.07 485.45 866.17 453.88 899.48 454.16 909.38 485.73"/><polygon class="cls-3" points="942.69 486 909.38 485.73 899.48 454.16 932.79 454.44 942.69 486"/><polygon class="cls-3" points="976 486.28 942.69 486 932.79 454.44 966.1 454.72 976 486.28"/><polygon class="cls-3" points="1009.3 486.56 976 486.28 966.1 454.72 999.4 454.99 1009.3 486.56"/><polygon class="cls-21" points="1042.6 486.84 1009.3 486.56 999.4 454.99 1032.71 455.27 1042.6 486.84"/><polygon class="cls-22" points="799.54 453.32 766.22 453.04 756.31 421.47 789.63 421.75 799.54 453.32"/><polygon class="cls-22" points="866.17 453.88 832.85 453.6 822.95 422.03 856.27 422.31 866.17 453.88"/><polygon class="cls-3" points="899.48 454.16 866.17 453.88 856.27 422.31 889.58 422.59 899.48 454.16"/><polygon class="cls-3" points="932.79 454.44 899.48 454.16 889.58 422.59 922.89 422.87 932.79 454.44"/><polygon class="cls-3" points="966.1 454.72 932.79 454.44 922.89 422.87 956.2 423.15 966.1 454.72"/><polygon class="cls-3" points="999.4 454.99 966.1 454.72 956.2 423.15 989.51 423.43 999.4 454.99"/><polygon class="cls-3" points="1032.71 455.27 999.4 454.99 989.51 423.43 1022.81 423.71 1032.71 455.27"/><polygon class="cls-22" points="922.89 422.87 889.58 422.59 879.68 391.02 912.99 391.3 922.89 422.87"/><polygon class="cls-22" points="956.2 423.15 922.89 422.87 912.99 391.3 946.3 391.58 956.2 423.15"/><polygon class="cls-3" points="989.51 423.43 956.2 423.15 946.3 391.58 979.61 391.86 989.51 423.43"/><polygon class="cls-3" points="1022.81 423.71 989.51 423.43 979.61 391.86 1012.91 392.14 1022.81 423.71"/><polygon class="cls-22" points="946.3 391.58 912.99 391.3 903.09 359.73 936.4 360.01 946.3 391.58"/><polygon class="cls-21" points="979.61 391.86 946.3 391.58 936.4 360.01 969.71 360.29 979.61 391.86"/><polygon class="cls-3" points="1012.91 392.14 979.61 391.86 969.71 360.29 1003.02 360.58 1012.91 392.14"/><polygon class="cls-3" points="903.09 359.73 869.77 359.45 859.87 327.87 893.19 328.16 903.09 359.73"/><polygon class="cls-3" points="936.4 360.01 903.09 359.73 893.19 328.16 926.5 328.44 936.4 360.01"/><polygon class="cls-3" points="969.71 360.29 936.4 360.01 926.5 328.44 959.81 328.72 969.71 360.29"/><polygon class="cls-3" points="1003.02 360.58 969.71 360.29 959.81 328.72 993.12 329 1003.02 360.58"/><polygon class="cls-21" points="859.87 327.87 826.55 327.59 816.65 296.01 849.97 296.3 859.87 327.87"/><polygon class="cls-3" points="893.19 328.16 859.87 327.87 849.97 296.3 883.28 296.58 893.19 328.16"/><polygon class="cls-3" points="926.5 328.44 893.19 328.16 883.28 296.58 916.6 296.86 926.5 328.44"/><polygon class="cls-3" points="959.81 328.72 926.5 328.44 916.6 296.86 949.91 297.15 959.81 328.72"/><polygon class="cls-3" points="883.28 296.58 849.97 296.3 840.06 264.72 873.38 265 883.28 296.58"/><polygon class="cls-21" points="949.91 297.15 916.6 296.86 906.7 265.29 940.01 265.57 949.91 297.15"/><polygon class="cls-15" points="742.81 484.34 709.48 484.06 719.39 515.63 729.3 547.2 739.21 578.77 772.53 579.04 805.84 579.32 795.94 547.75 829.25 548.03 862.57 548.3 852.66 516.74 885.97 517.01 876.07 485.45 909.38 485.73 919.28 517.29 929.18 548.85 939.08 580.41 972.39 580.69 962.49 549.13 952.59 517.57 942.69 486 976 486.28 1009.3 486.56 1019.2 518.12 1052.5 518.39 1042.6 486.84 1032.71 455.27 1022.81 423.71 1012.91 392.14 1003.02 360.58 993.12 329 959.81 328.72 949.91 297.15 940.01 265.57 906.7 265.29 916.6 296.86 883.28 296.58 873.38 265 840.06 264.72 849.97 296.3 816.65 296.01 826.55 327.59 859.87 327.87 869.77 359.45 903.09 359.73 912.99 391.3 879.68 391.02 889.58 422.59 856.27 422.31 822.95 422.03 832.85 453.6 799.54 453.32 789.63 421.75 756.31 421.47 766.22 453.04 732.9 452.77 742.81 484.34"/><polygon class="cls-9" points="865.13 690.44 430.1 704.36 339.94 308.39 768.76 290.65 865.13 690.44"/><polygon class="cls-18" points="240.91 495.8 339.94 308.39 430.1 704.36 324.13 858.81 240.91 495.8"/><polygon class="cls-14" points="324.13 858.81 430.1 704.36 865.13 690.44 743.45 852.77 324.13 858.81"/><polygon class="cls-19" points="398.33 750.65 430.1 704.36 865.13 690.44 830.35 736.84 398.33 750.65"/><polygon class="cls-4" points="470.77 527.03 493.7 626.66 547.66 624.83 541.87 599.85 704.41 594.26 710.35 619.34 764.86 617.5 740.95 517.27 713.79 518.25 707.86 493.31 491.9 501.24 497.63 526.06 470.77 527.03"/><polygon class="cls-9" points="486.17 476.45 459.36 477.45 453.66 452.71 480.46 451.7 486.17 476.45"/><polygon class="cls-11" points="723.12 442.51 696.02 443.53 690.12 418.7 717.19 417.66 723.12 442.51"/><polygon class="cls-22" points="493.7 626.66 499.46 651.65 580.51 648.96 574.69 623.92 683.16 620.26 689.08 645.36 770.86 642.65 764.86 617.5 710.35 619.34 704.41 594.26 541.87 599.85 547.66 624.83 493.7 626.66"/><polygon class="cls-22" points="740.95 517.27 764.86 617.5 792.16 616.58 768.15 516.29 740.95 517.27"/><polygon class="cls-22" points="443.93 528 466.77 627.56 493.7 626.66 470.77 527.03 443.93 528"/><polygon class="cls-22" points="470.77 527.03 465.06 502.22 491.9 501.24 497.64 526.06 470.77 527.03"/><polygon class="cls-22" points="707.85 493.31 735 492.32 740.95 517.28 713.78 518.26 707.85 493.31"/><polygon class="cls-22" points="690.13 418.71 717.19 417.66 711.27 392.85 684.23 393.9 690.13 418.71"/><polygon class="cls-22" points="486.17 476.45 491.9 501.24 707.86 493.31 701.94 468.41 647.79 470.43 641.93 445.58 534.14 449.66 539.91 474.45 486.17 476.45"/><polygon class="cls-22" points="430.98 354.15 404.31 355.22 409.94 379.79 436.64 378.73 430.98 354.15"/><polygon class="cls-22" points="474.74 426.99 447.98 428.02 453.66 452.71 480.45 451.7 474.74 426.99"/><polygon class="cls-22" points="339.94 308.39 351.09 357.36 377.68 356.29 372.08 331.76 505.44 326.33 511.17 350.93 564.8 348.77 559.03 324.14 612.75 321.95 618.57 346.61 645.5 345.53 639.65 320.85 693.58 318.65 699.47 343.36 726.5 342.27 732.42 367.01 759.52 365.94 753.58 341.18 780.67 340.09 768.76 290.65 339.94 308.39"/><polygon class="cls-7" points="316.03 454.65 306.33 474.07 300.54 448.81 310.24 429.33 316.03 454.65"/><polygon class="cls-7" points="241.77 495.91 246.89 520.07 285.11 442.98 290.89 468.21 300.54 448.81 294.75 423.52 323.92 364.69 329.74 390.14 339.55 370.43 333.72 344.92 343.55 325.08 339.94 308.39 241.77 495.91"/><polygon class="cls-7" points="339.94 308.39 346.36 336.5 246.97 522.2 240.91 495.8 339.94 308.39"/><polygon class="cls-25" points="865.13 690.44 430.1 704.36 339.94 308.39 768.76 290.65 865.13 690.44"/><polygon class="cls-12" points="803.54 434.93 847.18 676.71 444.07 688.45 383.77 500.88 430.1 704.36 865.13 690.44 803.54 434.93"/><polygon class="cls-8" points="847.19 681.8 836.29 728.92 865.13 690.44 847.19 681.8"/><polygon class="cls-16" points="447.59 701.37 408.83 735.36 430.16 685.45 447.59 701.37"/><polygon class="cls-22" points="768.76 290.65 777.98 328.92 348.85 347.53 339.94 308.39 768.76 290.65"/><polygon class="cls-22" points="575.92 319.15 583.77 366.52 502.97 372.41 489.48 321.29 575.92 319.15"/><polygon class="cls-17" points="768.76 290.65 818.8 498.23 758.26 318.77 367.72 328.78 383.77 500.88 339.94 308.39 768.76 290.65"/><polygon class="cls-24" points="240.91 495.8 339.94 308.39 430.1 704.36 324.13 858.81 240.91 495.8"/><polygon class="cls-10" points="324.13 858.81 430.1 704.36 865.13 690.44 743.45 852.77 324.13 858.81"/><polygon class="cls-1" points="709.51 662.25 729.16 694.79 718.4 728.92 709.51 662.25"/><polygon class="cls-23" points="709.51 662.25 697.01 694.85 718.4 728.92 709.51 662.25"/><polygon class="cls-20" points="780.74 803.03 738.68 831.2 337.82 835.29 288.24 702.24 324.13 858.81 743.45 852.77 780.74 803.03"/><polygon class="cls-21" points="186.55 631.33 158.15 637.59 153 602.55 181.13 596.38 186.55 631.33"/><polygon class="cls-22" points="327.66 600.2 299.55 606.4 293.07 571.83 320.91 565.73 327.66 600.2"/><polygon class="cls-22" points="355.71 594.01 327.66 600.2 320.91 565.73 348.7 559.63 355.71 594.01"/><polygon class="cls-21" points="181.13 596.38 153 602.55 147.95 568.18 175.81 562.1 181.13 596.38"/><polygon class="cls-21" points="265.17 577.95 237.21 584.08 231.37 549.99 259.07 543.95 265.17 577.95"/><polygon class="cls-22" points="293.07 571.83 265.17 577.95 259.07 543.95 286.71 537.93 293.07 571.83"/><polygon class="cls-22" points="320.91 565.73 293.07 571.83 286.71 537.93 314.29 531.91 320.91 565.73"/><polygon class="cls-22" points="348.7 559.63 320.91 565.73 314.29 531.91 341.82 525.91 348.7 559.63"/><polygon class="cls-21" points="92.06 580.37 64.03 586.48 59.86 552.48 87.63 546.46 92.06 580.37"/><polygon class="cls-3" points="175.81 562.1 147.95 568.18 143 534.46 170.6 528.48 175.81 562.1"/><polygon class="cls-3" points="231.37 549.99 203.62 556.04 198.15 522.5 225.64 516.54 231.37 549.99"/><polygon class="cls-3" points="259.07 543.95 231.37 549.99 225.64 516.54 253.08 510.6 259.07 543.95"/><polygon class="cls-22" points="286.71 537.93 259.07 543.95 253.08 510.6 280.47 504.66 286.71 537.93"/><polygon class="cls-22" points="314.29 531.91 286.71 537.93 280.47 504.66 307.8 498.73 314.29 531.91"/><polygon class="cls-22" points="341.82 525.91 314.29 531.91 307.8 498.73 335.08 492.82 341.82 525.91"/><polygon class="cls-21" points="87.63 546.46 59.86 552.48 55.76 519.13 83.27 513.2 87.63 546.46"/><polygon class="cls-3" points="115.34 540.46 87.63 546.46 83.27 513.2 110.73 507.28 115.34 540.46"/><polygon class="cls-3" points="143 534.46 115.34 540.46 110.73 507.28 138.13 501.38 143 534.46"/><polygon class="cls-3" points="170.6 528.48 143 534.46 138.13 501.38 165.48 495.48 170.6 528.48"/><polygon class="cls-3" points="198.15 522.5 170.6 528.48 165.48 495.48 192.78 489.6 198.15 522.5"/><polygon class="cls-22" points="225.64 516.54 198.15 522.5 192.78 489.6 220.02 483.72 225.64 516.54"/><polygon class="cls-22" points="253.08 510.6 225.64 516.54 220.02 483.72 247.21 477.86 253.08 510.6"/><polygon class="cls-22" points="280.47 504.66 253.08 510.6 247.21 477.86 274.34 472.01 280.47 504.66"/><polygon class="cls-22" points="307.8 498.73 280.47 504.66 274.34 472.01 301.43 466.18 307.8 498.73"/><polygon class="cls-3" points="83.27 513.2 55.76 519.13 51.75 486.4 79.01 480.56 83.27 513.2"/><polygon class="cls-3" points="110.73 507.28 83.27 513.2 79.01 480.56 106.21 474.73 110.73 507.28"/><polygon class="cls-3" points="138.13 501.38 110.73 507.28 106.21 474.73 133.36 468.91 138.13 501.38"/><polygon class="cls-3" points="165.48 495.48 138.13 501.38 133.36 468.91 160.46 463.1 165.48 495.48"/><polygon class="cls-3" points="192.78 489.6 165.48 495.48 160.46 463.1 187.51 457.3 192.78 489.6"/><polygon class="cls-22" points="220.02 483.72 192.78 489.6 187.51 457.3 214.5 451.51 220.02 483.72"/><polygon class="cls-22" points="274.34 472.01 247.21 477.86 241.44 445.74 268.33 439.98 274.34 472.01"/><polygon class="cls-3" points="79.01 480.56 51.75 486.4 47.8 454.28 74.81 448.52 79.01 480.56"/><polygon class="cls-3" points="106.21 474.73 79.01 480.56 74.81 448.52 101.77 442.77 106.21 474.73"/><polygon class="cls-22" points="133.36 468.91 106.21 474.73 101.77 442.77 128.68 437.04 133.36 468.91"/><polygon class="cls-22" points="160.46 463.1 133.36 468.91 128.68 437.04 155.53 431.31 160.46 463.1"/><polygon class="cls-3" points="74.81 448.52 47.8 454.28 43.93 422.74 70.7 417.07 74.81 448.52"/><polygon class="cls-21" points="101.77 442.77 74.81 448.52 70.7 417.07 97.42 411.4 101.77 442.77"/><polygon class="cls-22" points="128.68 437.04 101.77 442.77 97.42 411.4 124.08 405.75 128.68 437.04"/><polygon class="cls-3" points="70.7 417.07 43.93 422.74 40.13 391.78 66.66 386.18 70.7 417.07"/><polygon class="cls-3" points="97.42 411.4 70.7 417.07 66.66 386.18 93.14 380.6 97.42 411.4"/><polygon class="cls-3" points="124.08 405.75 97.42 411.4 93.14 380.6 119.57 375.03 124.08 405.75"/><polygon class="cls-3" points="150.69 400.11 124.08 405.75 119.57 375.03 145.94 369.46 150.69 400.11"/><polygon class="cls-3" points="93.14 380.6 66.66 386.18 62.7 355.86 88.94 350.35 93.14 380.6"/><polygon class="cls-3" points="119.57 375.03 93.14 380.6 88.94 350.35 115.13 344.86 119.57 375.03"/><polygon class="cls-3" points="145.94 369.46 119.57 375.03 115.13 344.86 141.28 339.37 145.94 369.46"/><polygon class="cls-21" points="172.27 363.91 145.94 369.46 141.28 339.37 167.37 333.9 172.27 363.91"/><polygon class="cls-21" points="88.94 350.35 62.7 355.86 58.8 326.07 84.81 320.64 88.94 350.35"/><polygon class="cls-3" points="141.28 339.37 115.13 344.86 110.78 315.22 136.69 309.81 141.28 339.37"/><path class="cls-2" d="M59.86,552.48l-4.09-33.35-4.02-32.73-3.94-32.12-3.87-31.54-3.8-30.96,26.53-5.59-3.97-30.33-3.9-29.79,26.01-5.43,4.13,29.71,26.19-5.49-4.35-29.63,25.92-5.41,4.58,29.56,26.1-5.47,4.9,30.01-26.33,5.55,4.75,30.64-26.61,5.64,4.6,31.29,26.85-5.72,4.93,31.79,27.05-5.8,26.99-5.79,5.52,32.21,27.19-5.86-5.76-32.13,26.89-5.76,6.01,32.04,27.08-5.84,6.37,32.56,27.28-5.91,6.75,33.09,6.88,33.72,7.01,34.38-28.05,6.19-28.11,6.2-6.48-34.56-27.9,6.12-27.96,6.13-5.84-34.09-27.75,6.05-5.47-33.54-27.55,5.97,5.21,33.63,5.31,34.28,5.42,34.95-28.4,6.26-5.15-35.04-5.05-34.37-4.96-33.72-27.66,6-27.71,6.01,4.43,33.9-28.03,6.11-4.17-33.99Z"/><polygon class="cls-13" points="339.94 308.39 310.79 363.56 351.62 325.07 339.94 308.39"/><rect class="cls-6" x="343.64" y="637.59" width="24.13" height="24.13"/><rect class="cls-6" x="661.65" y="768.46" width="24.13" height="24.13"/></g></svg>